<svg width="28" height="28" viewBox="0 0 28 28" fill="#ff0000" xmlns="http://www.w3.org/2000/svg">
    <path d="M7.43752 19.5416H12.9792V17.7916H7.43752V19.5416ZM18.8125 19.5416H20.5625V17.7916H18.8125V19.5416ZM7.43752 14.875H12.9792V13.125H7.43752V14.875ZM18.8125 14.875H20.5625V8.45831H18.8125V14.875ZM7.43752 10.2083H12.9792V8.45831H7.43752V10.2083ZM5.01669 23.9166C4.43335 23.9166 3.93752 23.7125 3.52919 23.3041C3.12085 22.8958 2.91669 22.4 2.91669 21.8166V6.18331C2.91669 5.59998 3.12085 5.10415 3.52919 4.69581C3.93752 4.28748 4.43335 4.08331 5.01669 4.08331H22.9834C23.5667 4.08331 24.0625 4.28748 24.4709 4.69581C24.8792 5.10415 25.0834 5.59998 25.0834 6.18331V21.8166C25.0834 22.4 24.8792 22.8958 24.4709 23.3041C24.0625 23.7125 23.5667 23.9166 22.9834 23.9166H5.01669ZM5.01669 22.1666H22.9834C23.0611 22.1666 23.1389 22.1278 23.2167 22.05C23.2945 21.9722 23.3334 21.8944 23.3334 21.8166V6.18331C23.3334 6.10554 23.2945 6.02776 23.2167 5.94998C23.1389 5.8722 23.0611 5.83331 22.9834 5.83331H5.01669C4.93891 5.83331 4.86113 5.8722 4.78335 5.94998C4.70558 6.02776 4.66669 6.10554 4.66669 6.18331V21.8166C4.66669 21.8944 4.70558 21.9722 4.78335 22.05C4.86113 22.1278 4.93891 22.1666 5.01669 22.1666Z"></path>
</svg>