<?xml version="1.0" encoding="utf-8"?>
<!-- Svg Vector Icons : http://www.onlinewebfonts.com/icon -->
<!DOCTYPE svg PUBLIC "-//W3C//DTD SVG 1.1//EN" "http://www.w3.org/Graphics/SVG/1.1/DTD/svg11.dtd">
<svg version="1.1" xmlns="http://www.w3.org/2000/svg" xmlns:xlink="http://www.w3.org/1999/xlink" x="0px" y="0px" viewBox="0 0 256 256" enable-background="new 0 0 256 256" xml:space="preserve">
<metadata> Svg Vector Icons : http://www.onlinewebfonts.com/icon </metadata>
<g><g><path fill="#666" d="M92.1,148.3V169h20.6L228.2,53.6l-20.8-20.7L92.1,148.3z"/><path fill="#666" d="M243.6,25.6l-8-8c-1.7-1.5-4-2.4-6.4-2.4s-4.7,1-6.4,2.4l-7.8,7.8l0.1,0.1l7.2,7.2l13.5,13.5l7.8-7.8c1.5-1.7,2.4-3.9,2.4-6.4C246.1,29.6,245.1,27.3,243.6,25.6z"/><path fill="#666" d="M122.6,179.3H81.8v-40.8l82.1-82.1h-0.2l0.3-0.3H10v184.7h195V98.4l0.1-1.6L122.6,179.3z"/></g></g>
</svg>