<svg width="28" height="28" viewBox="0 0 28 28" fill="#ff0000" xmlns="http://www.w3.org/2000/svg">
    <path d="M8.16666 6.88332C7.58333 6.88332 7.07777 6.67409 6.65 6.25565C6.22222 5.83798 6.00833 5.32776 6.00833 4.72498C6.00833 4.14165 6.22222 3.63609 6.65 3.20832C7.07777 2.78054 7.58333 2.56665 8.16666 2.56665C8.75 2.56665 9.25555 2.78054 9.68333 3.20832C10.1111 3.63609 10.325 4.14165 10.325 4.72498C10.325 5.32776 10.1111 5.83798 9.68333 6.25565C9.25555 6.67409 8.75 6.88332 8.16666 6.88332ZM19.6292 13.0083C19.1819 13.0083 18.7981 12.8477 18.4777 12.5265C18.1564 12.206 17.9958 11.8222 17.9958 11.375C17.9958 10.9083 18.1564 10.5194 18.4777 10.2083C18.7981 9.89721 19.1819 9.74165 19.6292 9.74165C20.0958 9.74165 20.4847 9.89721 20.7958 10.2083C21.1069 10.5194 21.2625 10.9083 21.2625 11.375C21.2625 11.8222 21.1069 12.206 20.7958 12.5265C20.4847 12.8477 20.0958 13.0083 19.6292 13.0083ZM5.97916 25.375V17.4416H4.14166V10.5292C4.14166 9.94582 4.34583 9.44493 4.75416 9.02648C5.1625 8.60882 5.65833 8.39998 6.24166 8.39998H9.68333C10.1111 8.39998 10.4903 8.50693 10.8208 8.72082C11.1514 8.93471 11.4042 9.22637 11.5792 9.59582L15.1083 17.0625L17.0625 14.8167C17.1986 14.6417 17.3787 14.5005 17.6027 14.3932C17.8259 14.2866 18.0542 14.2333 18.2875 14.2333H21.1458C21.5931 14.2333 21.9722 14.3889 22.2833 14.7C22.5944 15.0111 22.75 15.3805 22.75 15.8083V19.8916H21.5833V25.375H17.675V16.7417L16.1 18.4917H13.825L11.0833 12.3958V25.375H5.97916Z"></path>
</svg>